<svg aria-hidden="true" style="position: absolute; width: 0; height: 0; overflow: hidden;" version="1.1" xmlns="http://www.w3.org/2000/svg" xmlns:xlink="http://www.w3.org/1999/xlink">
<defs>
<symbol id="icon-bar-graph" viewBox="0 0 32 32">
<path d="M27.2 1.6h-3.2c-0.883 0-1.6 0.715-1.6 1.6v27.187h6.4v-27.187c0-0.885-0.715-1.6-1.6-1.6zM17.6 11.2h-3.2c-0.883 0-1.6 0.715-1.6 1.6v17.587h6.4v-17.587c0-0.885-0.715-1.6-1.6-1.6zM8 20.8h-3.2c-0.883 0-1.6 0.715-1.6 1.6v7.987h6.4v-7.987c0-0.885-0.715-1.6-1.6-1.6z"></path>
</symbol>
<symbol id="icon-bell" viewBox="0 0 32 32">
<path d="M23.44 13.619c-3.648-7.851-5.546-10.834-11.506-10.709-2.123 0.043-1.614-1.539-3.234-0.939-1.616 0.6-0.229 1.478-1.883 2.837-4.643 3.813-4.216 7.339-2.062 15.744 0.907 3.541-2.187 3.714-0.963 7.144 0.894 2.502 7.486 3.55 14.44 0.971 6.955-2.581 11.338-7.702 10.443-10.205-1.224-3.432-3.698-1.538-5.235-4.843zM17.478 26.552c-6.211 2.304-11.315 0.95-11.531 0.347-0.371-1.040 2.005-4.506 9.106-7.141s11.064-1.658 11.478-0.498c0.245 0.686-2.84 4.986-9.053 7.291zM15.482 20.962c-3.246 1.205-5.502 2.582-6.965 3.822 1.029 0.934 2.955 1.162 4.874 0.45 2.443-0.904 3.946-2.986 3.352-4.646-0.008-0.021-0.018-0.037-0.026-0.058-0.402 0.131-0.813 0.274-1.235 0.432z"></path>
</symbol>
<symbol id="icon-cog" viewBox="0 0 32 32">
<path d="M26.853 16c0-1.678 1.034-3 2.587-3.909-0.282-0.934-0.651-1.832-1.107-2.675-1.742 0.456-3.152-0.226-4.338-1.413-1.186-1.184-1.549-2.594-1.093-4.338-0.843-0.456-1.741-0.829-2.675-1.106-0.909 1.552-2.552 2.584-4.227 2.584-1.677 0-3.318-1.032-4.229-2.584-0.936 0.277-1.83 0.65-2.674 1.106 0.456 1.744 0.094 3.154-1.094 4.338-1.184 1.187-2.594 1.869-4.338 1.413-0.456 0.843-0.827 1.741-1.106 2.675 1.552 0.909 2.584 2.23 2.584 3.909 0 1.675-1.032 3.318-2.584 4.229 0.28 0.934 0.65 1.83 1.106 2.675 1.744-0.456 3.154-0.094 4.338 1.091 1.186 1.187 1.55 2.597 1.094 4.338 0.843 0.456 1.739 0.829 2.675 1.109 0.909-1.557 2.552-2.587 4.229-2.587 1.675 0 3.318 1.032 4.229 2.587 0.934-0.282 1.83-0.653 2.675-1.109-0.456-1.741-0.094-3.15 1.093-4.338 1.186-1.184 2.595-1.866 4.338-1.413 0.456-0.843 0.827-1.738 1.107-2.675-1.557-0.91-2.59-2.232-2.59-3.907zM16 21.843c-3.229 0-5.845-2.616-5.845-5.843 0-3.229 2.618-5.846 5.845-5.846 3.229 0 5.843 2.619 5.843 5.846 0 3.229-2.614 5.843-5.843 5.843z"></path>
</symbol>
<symbol id="icon-home" viewBox="0 0 32 32">
<path d="M29.875 17.6h-2.675v9.6c0 0.712-0.31 1.6-1.6 1.6h-6.4v-9.6h-6.4v9.6h-6.4c-1.29 0-1.6-0.888-1.6-1.6v-9.6h-2.675c-0.957 0-0.752-0.518-0.096-1.197l12.838-12.851c0.312-0.323 0.722-0.483 1.133-0.499 0.411 0.016 0.821 0.174 1.133 0.499l12.837 12.85c0.658 0.68 0.862 1.198-0.094 1.198z"></path>
</symbol>
<symbol id="icon-stopwatch" viewBox="0 0 32 32">
<path d="M11.802 10.792c-0.715 0.44 1.915 6.787 2.557 7.821 0.56 0.91 1.749 1.187 2.653 0.63 0.909-0.563 1.192-1.75 0.632-2.656-0.635-1.037-5.128-6.237-5.842-5.795zM11.266 3.843c1.485-0.517 3.075-0.803 4.734-0.803s3.25 0.286 4.734 0.803c0.526 0.182 1.224-0.184 0.915-0.978-0.226-0.576-0.443-1.139-0.531-1.368-0.21-0.542-0.96-0.99-1.286-1.064-1.235-0.278-2.515-0.434-3.832-0.434s-2.597 0.155-3.834 0.434c-0.326 0.074-1.075 0.522-1.285 1.064-0.088 0.229-0.307 0.792-0.531 1.368-0.309 0.794 0.389 1.162 0.915 0.978zM30.557 5.098c-0.307-0.368-0.634-0.728-0.981-1.075-0.346-0.347-0.706-0.672-1.072-0.981-0.245-0.206-0.965-0.374-1.421 0.082-0.454 0.456-2.637 2.635-2.637 2.635 0.643 0.461 1.269 0.968 1.848 1.546s1.083 1.203 1.546 1.848c0 0 2.181-2.179 2.635-2.635 0.458-0.458 0.29-1.176 0.082-1.419zM16 4.64c-7.16 0-12.962 5.802-12.962 12.96 0 7.16 5.802 12.962 12.962 12.962 7.157 0 12.96-5.802 12.96-12.962 0-7.157-5.803-12.96-12.96-12.96zM16 27.362c-5.389 0-9.76-4.37-9.76-9.76s4.37-9.76 9.76-9.76c5.39 0 9.762 4.37 9.762 9.76 0 5.389-4.371 9.76-9.762 9.76z"></path>
</symbol>
<symbol id="icon-trophy" viewBox="0 0 32 32">
<path d="M17.888 22.97c0-2.322 1.76-3.606 4.63-5.507 3.51-2.33 7.882-5.224 7.882-12.096 0-0.619-0.507-1.118-1.134-1.118h-5.488c-0.774-1.434-3.086-2.968-7.778-2.968-4.694 0-7.003 1.534-7.779 2.968h-5.49c-0.626 0-1.131 0.501-1.131 1.118 0 6.872 4.368 9.766 7.882 12.094 2.87 1.901 4.63 3.186 4.63 5.507v2.098c-3.014 0.334-5.23 1.45-5.23 2.778 0 1.59 3.187 2.878 7.118 2.878s7.118-1.288 7.118-2.878c0-1.328-2.216-2.443-5.23-2.778v-2.096zM22.331 14.88c0.906-1.918 1.626-4.522 1.741-8.394h4.016c-0.384 4.322-2.979 6.502-5.757 8.394zM16 3.242c4.371-0.003 6.078 1.784 6.077 2.446 0 0.669-1.706 2.453-6.077 2.456-4.371-0.002-6.078-1.786-6.078-2.454-0.002-0.662 1.707-2.451 6.078-2.448zM3.912 6.486h4.014c0.117 3.872 0.834 6.475 1.742 8.394-2.778-1.891-5.374-4.072-5.757-8.394z"></path>
</symbol>
</defs>
</svg>
